# xmcd CD database file
#
# Track frame offsets:
#	150
#	14453
#	30898
#	48591
#	65041
#	82874
#	99237
#	118532
#	135320
#	154773
#	175173
#	189521
#	205958
#	221874
#	240778
#	258009
#	275056
#	290220
#	306456
#	321268
#
# Disc length: 4535 seconds
#
# Revision: 1
# Processed by: cddbd v1.5.2PL0 Copyright (c) Steve Scherf et al.
# Submitted via: CDex 1.40PlusFr
#
DISCID=1b11b514
DTITLE=Bill Deraime - Bouge Encore
DYEAR=2008
DGENRE=Blues
TTITLE0=Les Râmes de L'âme
TTITLE1=Merci Pour Tout
TTITLE2=Quelqu' un Appelle
TTITLE3=Oh ! Toi
TTITLE4=Dis-Moi Encore
TTITLE5=Il Avance
TTITLE6=Je Rêve
TTITLE7=Encore Bouger
TTITLE8=Géraldine
TTITLE9=Plus La Peine De Frimer
TTITLE10=L' Enfant Est Né
TTITLE11=Laisse-moi Une Chance
TTITLE12=Qu' est-ce Que Tu vas Faire
TTITLE13=Le Train Roule
TTITLE14=S' coue-toi
TTITLE15=Pauvre De Moi
TTITLE16=Mean Ol' Blues
TTITLE17=C'est Dur
TTITLE18='Faut Que Je Me Tire Ailleurs
TTITLE19=Quand L'Avion
EXTD=YEAR: 2008 ID3G: 0
EXTT0=
EXTT1=
EXTT2=
EXTT3=
EXTT4=
EXTT5=
EXTT6=
EXTT7=
EXTT8=
EXTT9=
EXTT10=
EXTT11=
EXTT12=
EXTT13=
EXTT14=
EXTT15=
EXTT16=
EXTT17=
EXTT18=
EXTT19=
PLAYORDER=
